<svg width="1652" height="300" viewBox="0 0 1652 300" fill="none" xmlns="http://www.w3.org/2000/svg">
<path d="M297.143 18H307.857L313.81 24.25L315 26.75V34.25L310.238 40.5L305.476 43H297.143L291.19 36.75L290 28L293.571 20.5L297.143 18Z" fill="#2C2C2C"/>
<path d="M63.1429 18H73.8571L79.8095 24.25L81 26.75V34.25L76.2381 40.5L71.4762 43H63.1429L57.1905 36.75L56 28L59.5714 20.5L63.1429 18Z" fill="#2C2C2C"/>
<path d="M297.5 257H306.25L312.5 260.75L315 264.5V274.5L310 280.75L298.75 282L292.5 278.25L290 273.25V265.75L295 258.25L297.5 257Z" fill="#2C2C2C"/>
<rect width="1652" height="300" fill="#2C2C2C"/>
<path d="M65.6471 0H74.1569L86.3137 4.8583L92.3922 9.7166L98.4706 20.6478L150.745 21.8623L158.039 24.2915L161.686 30.3644V66.8016L210.314 65.587L211.529 27.9352L216.392 23.0769L222.471 21.8623H273.529L275.961 14.5749L282.039 7.28745L292.98 1.21457L297.843 0H306.353L319.725 4.8583L325.804 9.7166L331.882 19.4332L333.098 23.0769V38.8664L328.235 48.583L323.373 54.6559L308.784 61.9433H296.627L286.902 58.2996L280.824 53.4413L273.529 42.5101V40.081H229.765V66.8016L241.922 68.0162L254.078 74.0891L260.157 78.9474L266.235 88.664L269.882 103.239V140.891L311.216 139.676L318.51 128.745L324.588 123.887L331.882 120.243L344.039 119.028L354.98 122.672L362.275 127.53L369.569 137.247L372 143.32V159.109L364.706 171.255L357.412 177.328L347.686 180.972H335.529L325.804 177.328L318.51 171.255L312.431 161.538V159.109H269.882V195.547L267.451 208.907L260.157 221.053L251.647 228.34L239.49 233.198L230.98 234.413L229.765 259.919H272.314L280.824 246.559L290.549 240.486L297.843 238.057L310 239.271L319.725 242.915L328.235 251.417L333.098 261.134V278.138L328.235 287.854L318.51 296.356L308.784 300H296.627L286.902 296.356L279.608 290.283L273.529 280.567V278.138H215.176L211.529 273.279L210.314 234.413H161.686V265.992L159.255 276.923L156.824 278.138H98.4706L96.0392 284.211L87.5294 293.927L77.8039 298.785L72.9412 300H62L51.0588 295.142L42.549 286.64L38.902 279.352L37.6863 265.992L41.3333 255.061L47.4118 246.559L58.3529 240.486L66.8627 238.057L77.8039 239.271L87.5294 244.13L96.0392 253.846L99.6863 259.919H141.02L142.235 233.198H132.51L120.353 228.34L110.627 219.838L103.333 205.263L102.118 199.19V159.109L60.7843 160.324L53.4902 171.255L42.549 178.543L36.4706 180.972H24.3137L14.5882 177.328L6.07843 170.04L0 157.895V143.32L3.64706 134.818L12.1569 125.101L23.098 120.243L35.2549 119.028L46.1961 122.672L54.7059 129.96L60.7843 140.891H102.118V100.81L105.765 88.664L114.275 76.5182L125.216 69.2308L142.235 65.587L143.451 40.081L98.4706 41.2955L93.6078 49.7976L83.8824 58.2996L74.1569 61.9433H62L49.8431 55.8704L41.3333 46.1538L38.902 40.081V21.8623L42.549 14.5749L47.4118 8.50202L57.1373 2.42915L65.6471 0Z" fill="#CBCBCB"/>
<path d="M460.214 63H499.071L507.571 75.1622L522.143 98.2703L541.571 129.892L559.786 159.081L570.714 176.108L574.357 182.189L575.571 63H612V243H571.929L557.357 219.892L518.5 156.649L503.929 133.541L499.071 126.243V123.811H496.643L497.857 139.622V240.568L496.643 243H460.214L459 230.838L460.214 63Z" fill="#CBCBCB"/>
<path d="M134.556 85H237.657L244.935 89.8598L249.787 97.1495L251 100.794V196.776L247.361 206.495L240.083 212.57L234.019 215H135.769L128.491 211.355L121.213 202.85L120 197.991V100.794L124.852 91.0748L134.556 85Z" fill="#2C2C2C"/>
<path d="M1130.78 58H1150.33L1167.44 60.4387L1183.33 66.5355L1195.56 73.8516L1205.33 84.8258L1211.44 98.2387L1213.89 115.31L1212.67 116.529H1174.78L1169.89 101.897L1163.78 95.8L1154 90.9226L1146.67 89.7032H1132L1121 93.3613L1114.89 99.4581L1112.44 105.555L1113.67 116.529L1119.78 122.626L1134.44 128.723L1174.78 138.477L1195.56 147.013L1206.56 155.548L1213.89 165.303L1218.78 177.497L1220 193.348L1216.33 210.419L1209 223.832L1200.44 232.368L1180.89 242.123L1163.78 247H1128.33L1111.22 243.342L1091.67 233.587L1078.22 221.394L1070.89 209.2L1067.22 195.787L1066 184.813L1067.22 183.594L1103.89 182.374L1107.56 193.348L1112.44 203.103L1121 210.419L1134.44 215.297H1157.67L1171.11 210.419L1177.22 204.323L1179.67 197.006L1178.44 187.252L1174.78 181.155L1160.11 173.839L1128.33 165.303L1107.56 159.206L1092.89 151.89L1081.89 142.135L1075.78 132.381L1073.33 125.065L1072.11 109.213L1074.56 95.8L1080.67 84.8258L1088 75.071L1100.22 66.5355L1113.67 61.6581L1130.78 58Z" fill="#CBCBCB"/>
<path d="M696.071 109H719.143L733.714 112.664L745.857 118.77L758 128.54L765.286 138.31L771.357 151.743L775 168.841V185.938L771.357 203.035L762.857 220.133L751.929 232.345L739.786 239.673L727.643 244.558L715.5 247H698.5L679.071 242.115L666.929 236.009L654.786 225.018L647.5 214.027L641.429 198.15L639 181.053L640.214 162.735L645.071 146.858L652.357 133.425L658.429 126.097L671.786 116.327L683.929 111.442L696.071 109Z" fill="#CBCBCB"/>
<path d="M1432.31 109H1454.12L1469.87 111.442L1484.4 116.327L1492.88 122.434L1498.94 132.204L1501.37 141.973L1502.58 227.46L1505 243.336H1469.87L1466.23 232.345L1452.9 240.894L1437.15 245.779L1431.1 247H1414.13L1399.6 242.115L1389.9 236.009L1382.63 227.46L1379 216.469V196.929L1383.85 185.938L1389.9 178.611L1403.23 171.283L1417.77 167.619L1445.63 163.956L1458.96 160.292L1463.81 154.186V144.416L1460.17 138.31L1451.69 134.646H1432.31L1423.83 139.531L1417.77 152.965H1383.85L1382.63 146.858L1387.48 133.425L1398.38 121.212L1410.5 113.885L1423.83 110.221L1432.31 109Z" fill="#CBCBCB"/>
<path d="M977.731 109H999.712L1015.59 111.442L1030.24 116.327L1038.79 122.434L1044.89 132.204L1047.34 143.195L1048.56 228.681L1051 243.336H1015.59L1011.92 232.345L998.49 240.894L982.615 245.779L976.51 247H959.413L944.76 242.115L934.99 236.009L927.663 227.46L924 216.469V196.929L928.885 185.938L934.99 178.611L945.981 172.504L958.192 168.841L983.837 165.177L1000.93 161.513L1007.04 157.85L1009.48 154.186V144.416L1005.82 138.31L997.269 134.646H977.731L969.183 139.531L963.077 152.965H930.106L927.663 151.743L928.885 141.973L934.99 129.761L944.76 119.991L959.413 112.664L977.731 109Z" fill="#CBCBCB"/>
<path d="M1593.54 109H1614.25L1628.86 112.655L1641.04 121.182L1647.13 130.927L1650.78 144.327L1652 157.727V243H1615.47L1614.25 162.6L1611.81 150.418L1608.16 143.109L1603.29 139.455L1598.42 138.236H1585.02L1575.28 141.891L1569.19 151.636L1566.75 158.945L1565.53 172.345L1564.32 243H1529V111.436H1561.88L1563.1 112.655L1564.32 128.491L1572.84 118.745L1585.02 111.436L1593.54 109Z" fill="#CBCBCB"/>
<path d="M1289.98 109H1310.67L1327.71 112.664L1344.75 121.212L1353.26 129.761L1361.78 146.858L1363 157.85H1327.71L1320.41 143.195L1315.54 139.531L1308.24 137.088H1297.28L1286.33 140.752L1280.25 145.637L1274.16 157.85L1271.73 170.062V187.159L1275.38 201.814L1280.25 209.142L1288.76 216.469L1291.2 217.69H1310.67L1319.19 212.805L1324.06 206.699L1328.92 193.265H1363L1361.78 205.478L1355.7 220.133L1347.18 231.124L1337.44 238.451L1322.84 244.558L1313.1 247H1287.55L1271.73 242.115L1260.77 236.009L1249.82 226.239L1241.3 212.805L1236.43 199.372L1234 183.496L1235.22 162.735L1238.87 149.301L1246.17 134.646L1254.69 124.876L1271.73 113.885L1282.68 110.221L1289.98 109Z" fill="#CBCBCB"/>
<path d="M787.217 112H823.726L833.462 142.324L850.5 196.907L851.717 199.333L877.274 115.639L879.708 112H913.783L915 114.426L897.962 165.37L880.925 215.102L871.189 243H831.028L827.377 236.935L812.774 193.269L786 114.426L787.217 112Z" fill="#CBCBCB"/>
<path d="M152.045 110H220.955L225.791 114.909L227 173.818L225.791 186.091L219.746 191H153.254L148.418 188.545L146 183.636V117.364L149.627 111.227L152.045 110Z" fill="#CBCBCB"/>
<path d="M701.654 136H710.135L722.25 139.662L730.731 146.985L736.788 160.412L738 166.515V188.485L734.365 201.912L728.308 211.676L721.038 216.559L713.769 219H695.596L684.692 211.676L678.635 201.912L675 186.044V170.176L678.635 155.529L683.481 145.765L693.173 138.441L701.654 136Z" fill="#2C2C2C"/>
<path d="M164 127H208V170.784L206.778 172H166.444L164 170.784V127Z" fill="#2C2C2C"/>
<path d="M1462.37 181L1466 182.206L1464.79 200.294L1461.16 209.941L1453.91 218.382L1444.23 222H1427.3L1417.63 217.176L1414 207.529L1415.21 197.882L1421.26 190.647L1434.56 185.824L1453.91 183.412L1462.37 181Z" fill="#2C2C2C"/>
<path d="M1007.16 181L1012 182.206L1010.79 200.294L1007.16 209.941L999.907 218.382L990.233 222H973.302L964.837 218.382L961.209 212.353L960 202.706L963.628 194.265L969.674 189.441L980.558 185.824L999.907 183.412L1007.16 181Z" fill="#2C2C2C"/>
<path d="M335.143 138H345.857L351.81 144.25L353 146.75V154.25L348.238 160.5L343.476 163H335.143L329.19 156.75L328 148L331.571 140.5L335.143 138Z" fill="#2C2C2C"/>
<path d="M26.6667 138H36.5714L42.7619 145.5L44 153L39.0476 160.5L34.0952 163H25.4286L19.2381 156.75L18 146.75L21.7143 140.5L26.6667 138Z" fill="#2C2C2C"/>
<path d="M63.6667 18H73.5714L79.7619 25.5L81 33L76.0476 40.5L71.0952 43H62.4286L56.2381 36.75L55 26.75L58.7143 20.5L63.6667 18Z" fill="#2C2C2C"/>
<path d="M298.667 18H308.571L314.762 25.5L316 33L311.048 40.5L306.095 43H297.429L291.238 36.75L290 26.75L293.714 20.5L298.667 18Z" fill="#2C2C2C"/>
<path d="M298.667 257H308.571L314.762 264.5L316 272L311.048 279.5L306.095 282H297.429L291.238 275.75L290 265.75L293.714 259.5L298.667 257Z" fill="#2C2C2C"/>
<path d="M64.3333 257H72.6667L78.619 260.75L81 265.75V273.25L75.0476 280.75L65.5238 282L59.5714 278.25L56 269.5L59.5714 260.75L64.3333 257Z" fill="#2C2C2C"/>
</svg>
