<svg width="940" height="337" viewBox="0 0 940 337" fill="none" xmlns="http://www.w3.org/2000/svg">
<rect width="940" height="336" fill="#2C2C2C"/>
<path d="M74.375 6.875L81.875 7.5L89.375 10.625L95.625 14.375L100.625 19.375L105.625 28.125L106.875 30L165 30.625L169.375 31.25L173.75 35.625L174.375 37.5L175 54.375V78.75H227.5V36.875L231.25 32.5L233.125 31.25L236.25 30.625L294.375 30L300 20L305.625 14.375L314.375 9.375L320 7.5H331.25L339.375 10L346.875 13.75L351.25 17.5L355.625 23.75L359.375 32.5L360 35.625V45.625L357.5 52.5L353.75 59.375L348.125 65.625L339.375 71.25L330.625 74.375H323.125L315.625 72.5L310 69.375L303.75 63.75L299.375 58.75L295 50H247.5L248.125 78.125L259.375 79.375L266.875 81.875L273.75 85.625L281.875 93.75L286.25 101.25L289.375 110.625L290.625 117.5L291.25 132.5V159.375L298.125 158.75L335.625 158.125L340.625 149.375L346.25 143.125L355 137.5L363.125 135H370.625L380.625 137.5L388.125 141.875L394.375 148.125L398.75 155L401.25 165V175.625L398.75 182.5L395 188.125L390.625 193.125L384.375 197.5L376.875 200.625L374.375 201.25H363.125L355 198.75L348.75 195L344.375 191.25L340 185L336.875 178.75L291.25 178.125V216.25L290 226.25L285.625 236.875L280 245L275 250L267.5 255L259.375 257.5L247.5 258.75V287.5L294.375 286.875L299.375 277.5L303.75 272.5L311.875 266.875L318.75 264.375L321.875 263.75H329.375L339.375 266.25L345.625 269.375L350.625 273.75L356.25 281.875L359.375 290L360 292.5V302.5L358.125 308.75L354.375 315.625L346.875 323.125L338.125 327.5L329.375 329.375H324.375L316.875 328.125L311.25 326.25L305.625 322.5L300 316.25L294.375 306.875H243.75L233.75 306.25L228.75 303.75L227.5 300V258.125L187.5 258.75H174.375V300.625L171.25 305L169.375 306.25L156.25 306.875H106.875L101.875 315.625L97.5 320.625L91.875 324.375L83.125 328.125L78.125 329.375H69.375L58.75 326.25L52.5 321.875L48.125 317.5L43.125 309.375L41.25 303.125V290L44.375 281.875L49.375 275.625L55 270L63.75 265.625L69.375 264.375L78.125 263.75L86.875 265.625L93.75 269.375L98.125 273.125L103.125 280L106.875 286.875L154.375 287.5V258.75L145.625 258.125L135.625 255.625L128.75 251.875L121.25 245L116.875 238.75L111.875 228.125L110.625 220.625V178.125H65.625L62.5 184.375L58.125 190L52.5 195L46.25 198.75L38.125 201.25H27.5L19.375 198.75L13.125 195L7.5 190L3.125 183.125L0.625 175.625L0 171.875V165.625L1.875 156.875L5.625 150L12.5 142.5L19.375 138.125L27.5 135.625L31.875 135H38.125L46.25 137.5L52.5 141.25L58.75 146.875L63.125 153.75L65.625 158.75H110L110.625 114.375L112.5 106.875L118.125 96.25L123.125 90L129.375 84.375L136.875 80.625L145 78.75L153.75 78.125L154.375 49.375L106.875 50L101.875 58.75L95 66.25L86.25 71.875L78.125 74.375H70.625L60.625 71.25L53.75 66.25L48.75 61.875L44.375 55L41.25 46.25V33.125L43.75 26.25L48.75 19.375L53.75 14.375L60 10.625L70 7.5L74.375 6.875Z" fill="#F3F3F3"/>
<path d="M156.25 96.875H249.375L256.25 98.125L263.75 102.5L268.75 108.125L271.25 113.75V220L269.375 226.25L265.625 231.25L260 235.625L253.125 238.125L248.75 238.75H151.875L145.625 237.5L138.125 233.75L132.5 228.125L130 221.25L129.375 216.875L128.75 198.125V127.5L129.375 115L132.5 108.75L136.875 103.75L143.125 99.375L147.5 97.5L156.25 96.875Z" fill="#2C2C2C"/>
<path d="M421.25 0H455.625L468.125 20L475.625 31.875L484.375 45.625L495 63.125L502.5 75L510.625 88.125L515.625 95.625L520.625 102.5V103.75H521.875L521.25 102.5V0H553.125V155L549.375 155.625H519.375L515 149.375L506.875 136.25L493.125 113.75L485.625 101.875L476.875 87.5L468.75 75L460.625 61.875L455.625 54.375L452.5 51.25L453.125 56.25V155L438.125 155.625H421.25V0Z" fill="#F4F4F4"/>
<path d="M631.875 39.375L645 40L656.25 42.5L666.875 47.5L676.875 55L681.875 60.625L686.875 68.75L690.625 78.125L692.5 86.875L693.125 91.875V105.625L691.25 116.875L687.5 126.875L683.75 133.75L678.125 140.625L673.125 145.625L666.875 150L660.625 153.125L649.375 156.875L637.5 158.75L627.5 158.125L616.875 156.25L605.625 151.875L598.125 147.5L593.125 143.125L587.5 136.25L583.75 130.625L580 122.5L577.5 113.75L576.25 103.75V94.375L576.875 86.25L580 75L585 65L591.25 56.875L596.25 51.875L602.5 47.5L611.875 43.125L621.25 40.625L631.875 39.375Z" fill="#F4F4F4"/>
<path d="M470 186.875H477.5L493.75 188.125L506.875 192.5L515 196.875L521.25 201.875L526.25 208.75L529.375 215L531.875 223.125L533.125 232.5L532.5 233.125H503.125L501.875 231.25L499.375 223.125L496.875 219.375L493.125 216.25L487.5 213.75L482.5 212.5L476.875 211.875H470L463.75 213.125L458.75 215.625L455.625 218.125L453.75 221.25L453.125 223.75V231.25L455 235L459.375 238.75L471.875 243.125L499.375 250L510 253.75L521.875 259.375L528.125 265L531.875 269.375L535.625 277.5L537.5 285.625V297.5L535 307.5L530.625 315.625L523.125 323.75L516.875 328.125L506.875 332.5L496.25 335.625L492.5 336.25H471.25L461.875 335H456.875L446.875 331.25L437.5 326.25L428.125 318.125L423.125 311.25L420 304.375L418.125 298.75L416.875 291.25V286.25H446.875L447.5 286.875L448.75 293.75L451.25 300L456.875 306.25L466.25 310.625L473.125 311.875H486.25L493.125 310.625L500.625 306.875L504.375 303.75L506.25 300L506.875 296.875V292.5L505 287.5L502.5 284.375L496.25 280.625L490 278.125L472.5 273.125L454.375 268.125L443.125 263.75L436.875 260L430.625 254.375L425.625 247.5L423.125 242.5L421.25 233.75V227.5L423.125 218.75L429.375 206.875L436.25 198.75L445 193.125L452.5 190L463.125 187.5L470 186.875Z" fill="#F4F4F4"/>
<path d="M869.375 40H887.5L903.125 42.5L910.625 45L915.625 47.5L921.875 53.125L925.625 59.375L927.5 64.375L928.125 70.625L928.75 138.125L930.625 155L930 155.625H901.25L899.375 153.75L898.125 145L895 146.875L890 151.25L881.25 155L873.75 156.875L865.625 158.125H854.375L848.125 156.875L838.125 153.125L832.5 149.375L828.125 145L824.375 138.75L822.5 133.125L821.875 128.125V120L823.75 111.25L827.5 104.375L831.875 100L838.75 95.625L848.75 91.875L857.5 90L887.5 85.625L893.125 83.125L895.625 80L896.25 78.125V71.25L894.375 66.25L889.375 63.125L880 61.25H873.125L866.875 62.5L861.875 65.625L859.375 68.75L857.5 73.125L856.25 76.875H825.625V71.875L828.125 64.375L832.5 56.875L839.375 50L845.625 46.25L852.5 43.125L860 41.25L869.375 40Z" fill="#F4F4F4"/>
<path d="M711.875 227.5H720.625L734.375 228.75L744.375 231.25L752.5 235.625L758.125 241.875L761.25 248.75L762.5 260L763.125 322.5L765 333.75H737.5L736.25 332.5L735 324.375L732.5 325.625L727.5 329.375L721.25 332.5L713.125 335L705.625 336.25H693.75L682.5 333.125L675.625 329.375L670.625 325L667.5 320L665 312.5V296.875L668.125 289.375L672.5 283.75L678.75 279.375L686.25 276.25L697.5 273.75L721.875 270L728.125 268.125L731.25 265.625L733.125 261.25V256.875L731.25 251.875L728.125 249.375L722.5 247.5L717.5 246.875H711.25L705.625 248.125L701.875 250.625L699.375 253.75L696.25 261.25L668.125 261.875L667.5 261.25L668.125 255.625L671.25 247.5L676.25 240.625L681.875 235.625L690.625 231.25L699.375 228.75L711.875 227.5Z" fill="#F4F4F4"/>
<path d="M163.125 126.25H237.5L241.875 128.125L243.75 131.875L244.375 138.125V196.25L243.75 207.5L240.625 210L238.75 210.625L220.625 211.25H165.625L160 209.375L158.125 206.875L157.5 195V150L158.125 131.875L160 128.125L163.125 126.25Z" fill="#F4F4F4"/>
<path d="M836.875 227.5H851.875L861.25 229.375L868.125 233.125L874.375 238.75L878.125 245L880.625 253.125L881.875 266.25V333.75H853.125L852.5 332.5L851.875 263.125L850 257.5L846.25 253.125L840 250.625L831.875 250L825.625 251.25L820.625 253.75L816.875 259.375L814.375 266.25L813.75 269.375L813.125 278.125V333.125L812.5 333.75H784.375V229.375H811.25L811.875 243.125L813.75 242.5L817.5 237.5L822.5 233.125L831.25 228.75L836.875 227.5Z" fill="#F4F4F4"/>
<path d="M703.75 41.875H735L740.625 60L750 90.625L757.5 113.75L760 118.75L764.375 102.5L773.125 73.75L782.5 42.5L783.75 41.875H813.125L812.5 47.5L802.5 77.5L793.125 104.375L784.375 129.375L776.25 154.375L775.625 155H741.25L738.75 149.375L728.125 116.875L720.625 95.625L714.375 76.875L705 50L703.125 44.375L703.75 41.875Z" fill="#F4F4F4"/>
<path d="M595.625 227.5H610L620.625 229.375L630 232.5L636.25 236.25L642.5 241.875L648.125 250.625L650.625 256.875L652.5 265.625L651.875 266.25H625L619.375 255.625L616.25 252.5L610.625 250L608.125 249.375H599.375L593.125 251.25L588.125 255H586.875L581.875 265L580 271.875L579.375 276.875V286.25L580.625 294.375L583.125 302.5L587.5 308.125L593.125 312.5L596.875 313.75H610L615.625 311.25L620 307.5L623.125 301.25L625.625 294.375L626.875 293.75H652.5L651.875 299.375L648.75 308.75L644.375 317.5L638.75 323.75L633.75 328.125L623.75 333.125L618.125 335L609.375 336.25H596.875L586.875 335L580.625 333.125L571.875 328.125L565.625 322.5L561.25 318.125L556.25 310L553.125 301.875L551.25 295L550.625 290.625V273.125L553.75 260L557.5 251.25L561.875 245L565 241.25L572.5 235.625L578.75 231.875L587.5 228.75L595.625 227.5Z" fill="#F4F4F4"/>
<path d="M631.875 63.125L640.625 63.75L647.5 66.25L653.125 70L656.875 75L659.375 80L661.875 91.25V104.375L660 115.625L657.5 121.875L653.125 127.5L648.75 131.25L642.5 133.75L639.375 134.375H626.25L620.625 131.875L615 126.875L610.625 120L608.125 110.625L607.5 103.125V93.75L608.125 85.625L611.875 76.25L616.875 69.375L622.5 65.625L627.5 63.75L631.875 63.125Z" fill="#2C2C2C"/>
<path d="M183.125 143.75H224.375V191.875H176.25V144.375L183.125 143.75Z" fill="#2C2C2C"/>
<path d="M895 101.875H898.125L896.25 120L894.375 126.25L891.875 130L886.875 134.375L880 136.875L876.875 137.5H866.875L859.375 135.625L855 131.875L853.125 126.875V118.75L855 114.375L858.125 111.25L861.875 108.75L871.25 106.25L888.125 103.75L895 101.875Z" fill="#2C2C2C"/>
<path d="M732.5 284.375H734.375L733.75 298.125L731.875 305.625L728.125 311.25L723.125 315L716.25 316.875L708.75 317.5L700.625 316.25L696.875 313.75L694.375 310.625L693.125 306.875V300L695.625 295L700.625 291.25L706.25 289.375L726.25 286.25L732.5 284.375Z" fill="#1F1F1E"/>
<path d="M73.125 25.625L79.375 26.25L84.375 29.375L87.5 34.375L88.125 36.875V43.125L85.625 48.125L80.625 52.5L76.875 53.75H71.25L66.25 51.25L62.5 46.25L61.25 42.5V36.875L63.125 31.25L68.125 26.875L73.125 25.625Z" fill="#2C2C2C"/>
<path d="M323.75 25.625H328.125L333.75 27.5L337.5 30.625L340 36.875V42.5L338.125 47.5L333.75 51.875L328.75 53.75H323.125L317.5 50.625L314.375 46.25L313.125 41.875V37.5L315.625 30.625L320 26.875L323.75 25.625Z" fill="#2C2C2C"/>
<path d="M366.25 155.625L373.125 156.25L378.125 159.375L381.25 164.375L381.875 166.25V172.5L379.375 176.25L374.375 180.625L371.875 181.875L364.375 182.5L359.375 180.625L355.625 175L354.375 171.25V166.25L356.25 161.25L360.625 157.5L366.25 155.625Z" fill="#2C2C2C"/>
<path d="M73.125 283.125L78.75 283.75L83.125 286.25L86.875 290.625L88.125 294.375V300.625L85.625 305.625L81.875 308.75L78.75 310H70.625L65.625 307.5L61.875 302.5L61.25 300.625V293.75L63.75 288.75L68.75 284.375L73.125 283.125Z" fill="#2C2C2C"/>
<path d="M322.5 283.75H330.625L335 286.25L338.75 290.625L340 294.375V301.25L337.5 306.25L334.375 308.75L331.25 310H322.5L317.5 307.5L314.375 303.75L313.125 299.375L313.75 292.5L316.875 287.5L320.625 284.375L322.5 283.75Z" fill="#2C2C2C"/>
<path d="M31.25 155.625H36.25L40.625 157.5L43.75 160L46.875 166.25V171.875L44.375 176.25L38.75 181.25L33.75 182.5L28.125 181.875L24.375 179.375L20.625 173.125L20 170.625V166.25L23.125 160L28.75 156.25L31.25 155.625Z" fill="#2C2C2C"/>
</svg>
