<svg width="97" height="84" viewBox="0 0 97 84" fill="none" xmlns="http://www.w3.org/2000/svg">
<path d="M0 84L48.5 0L97 84H0ZM15.2114 75.1579H81.7886L48.5 17.6842L15.2114 75.1579ZM48.5 70.7368C49.7492 70.7368 50.7964 70.3132 51.6415 69.4658C52.4866 68.6184 52.9091 67.5684 52.9091 66.3158C52.9091 65.0632 52.4866 64.0132 51.6415 63.1658C50.7964 62.3184 49.7492 61.8947 48.5 61.8947C47.2508 61.8947 46.2036 62.3184 45.3585 63.1658C44.5134 64.0132 44.0909 65.0632 44.0909 66.3158C44.0909 67.5684 44.5134 68.6184 45.3585 69.4658C46.2036 70.3132 47.2508 70.7368 48.5 70.7368ZM44.0909 57.4737H52.9091V35.3684H44.0909V57.4737Z" fill="#F6152A"/>
</svg>
