<svg width="75" height="65" viewBox="0 0 75 65" fill="none" xmlns="http://www.w3.org/2000/svg">
<path d="M0 65L37.5 0L75 65H0ZM11.7614 58.1579H63.2386L37.5 13.6842L11.7614 58.1579ZM37.5 54.7368C38.4659 54.7368 39.2756 54.409 39.929 53.7533C40.5824 53.0976 40.9091 52.2851 40.9091 51.3158C40.9091 50.3465 40.5824 49.534 39.929 48.8783C39.2756 48.2226 38.4659 47.8947 37.5 47.8947C36.5341 47.8947 35.7244 48.2226 35.071 48.8783C34.4176 49.534 34.0909 50.3465 34.0909 51.3158C34.0909 52.2851 34.4176 53.0976 35.071 53.7533C35.7244 54.409 36.5341 54.7368 37.5 54.7368ZM34.0909 44.4737H40.9091V27.3684H34.0909V44.4737Z" fill="white"/>
</svg>
