<svg width="35" height="26" viewBox="0 0 35 26" fill="none" xmlns="http://www.w3.org/2000/svg">
<path d="M34.5299 14.9304C34.4073 15.0223 34.2679 15.0892 34.1195 15.1272C33.9711 15.1652 33.8166 15.1736 33.665 15.152C33.5133 15.1303 33.3674 15.079 33.2356 15.0009C33.1038 14.9229 32.9887 14.8196 32.8967 14.6971C32.1936 13.752 31.2784 12.9852 30.2248 12.4584C29.1713 11.9316 28.0087 11.6595 26.8308 11.6641C26.5214 11.6641 26.2247 11.5412 26.0059 11.3224C25.7871 11.1037 25.6642 10.8069 25.6642 10.4976C25.6642 10.1882 25.7871 9.89146 26.0059 9.67269C26.2247 9.45393 26.5214 9.33102 26.8308 9.33102C27.4853 9.33097 28.1267 9.14735 28.6821 8.80104C29.2375 8.45473 29.6847 7.9596 29.9728 7.37189C30.2609 6.78418 30.3784 6.12745 30.312 5.4763C30.2456 4.82515 29.9979 4.20567 29.597 3.68823C29.1962 3.1708 28.6583 2.77615 28.0444 2.5491C27.4305 2.32206 26.7652 2.27173 26.1242 2.40382C25.4831 2.53592 24.8919 2.84514 24.4178 3.29638C23.9437 3.74761 23.6056 4.32277 23.442 4.95652C23.4037 5.10492 23.3365 5.24433 23.2443 5.36678C23.1522 5.48923 23.0368 5.59233 22.9048 5.67019C22.7727 5.74804 22.6267 5.79913 22.4749 5.82054C22.3232 5.84195 22.1687 5.83326 22.0203 5.79496C21.8718 5.75666 21.7324 5.68951 21.61 5.59734C21.4875 5.50516 21.3844 5.38977 21.3066 5.25775C21.2287 5.12574 21.1776 4.97967 21.1562 4.82791C21.1348 4.67615 21.1435 4.52165 21.1818 4.37325C21.4089 3.49443 21.838 2.68075 22.4349 1.99695C23.0319 1.31314 23.7801 0.778093 24.6202 0.43437C25.4603 0.0906467 26.3691 -0.0522625 27.2741 0.0170129C28.1791 0.0862884 29.0555 0.365837 29.8335 0.833414C30.6115 1.30099 31.2696 1.94369 31.7555 2.71038C32.2414 3.47706 32.5417 4.34657 32.6324 5.24972C32.7231 6.15287 32.6018 7.06472 32.2781 7.91273C31.9544 8.76074 31.4373 9.5215 30.7678 10.1345C32.354 10.8213 33.7329 11.9111 34.7676 13.2958C34.8595 13.4186 34.9262 13.5584 34.964 13.7071C35.0018 13.8559 35.0099 14.0106 34.9879 14.1624C34.9658 14.3142 34.914 14.4602 34.8354 14.592C34.7568 14.7238 34.653 14.8388 34.5299 14.9304ZM26.6733 23.9127C26.7547 24.0455 26.8087 24.1933 26.8321 24.3473C26.8555 24.5013 26.8479 24.6584 26.8096 24.8094C26.7713 24.9604 26.7031 25.1022 26.6091 25.2264C26.5151 25.3507 26.3972 25.4548 26.2623 25.5327C26.1274 25.6106 25.9783 25.6607 25.8237 25.6801C25.6692 25.6994 25.5123 25.6876 25.3623 25.6454C25.2124 25.6031 25.0725 25.5312 24.9508 25.434C24.829 25.3368 24.728 25.2161 24.6537 25.0792C23.9188 23.8353 22.8722 22.8044 21.6174 22.0883C20.3625 21.3721 18.9426 20.9955 17.4977 20.9955C16.0529 20.9955 14.633 21.3721 13.3781 22.0883C12.1232 22.8044 11.0767 23.8353 10.3418 25.0792C10.2689 25.2187 10.1685 25.3419 10.0467 25.4415C9.92492 25.5411 9.78425 25.615 9.63315 25.6589C9.48205 25.7027 9.32364 25.7155 9.16746 25.6966C9.01128 25.6776 8.86055 25.6272 8.72434 25.5485C8.58813 25.4697 8.46925 25.3643 8.37486 25.2384C8.28047 25.1125 8.21252 24.9689 8.17509 24.8161C8.13766 24.6632 8.13153 24.5044 8.15706 24.3492C8.18259 24.194 8.23927 24.0455 8.32367 23.9127C9.45462 21.9695 11.179 20.4403 13.2435 19.5499C12.0819 18.6604 11.2281 17.4293 10.8023 16.0296C10.3764 14.6299 10.4 13.1319 10.8695 11.7462C11.3391 10.3605 12.231 9.15682 13.4201 8.30429C14.6091 7.45177 16.0354 6.99328 17.4985 6.99328C18.9615 6.99328 20.3878 7.45177 21.5769 8.30429C22.7659 9.15682 23.6579 10.3605 24.1274 11.7462C24.597 13.1319 24.6205 14.6299 24.1947 16.0296C23.7688 17.4293 22.9151 18.6604 21.7534 19.5499C23.8179 20.4403 25.5423 21.9695 26.6733 23.9127ZM17.4985 18.6633C18.4213 18.6633 19.3235 18.3896 20.0908 17.8769C20.8582 17.3642 21.4563 16.6354 21.8094 15.7828C22.1626 14.9302 22.255 13.992 22.075 13.0868C21.8949 12.1817 21.4505 11.3503 20.7979 10.6977C20.1454 10.0451 19.3139 9.60073 18.4088 9.42068C17.5036 9.24064 16.5654 9.33304 15.7128 9.68621C14.8602 10.0394 14.1314 10.6375 13.6187 11.4048C13.106 12.1721 12.8323 13.0743 12.8323 13.9972C12.8323 15.2347 13.3239 16.4216 14.199 17.2966C15.0741 18.1717 16.2609 18.6633 17.4985 18.6633ZM9.33272 10.4976C9.33272 10.1882 9.20982 9.89146 8.99105 9.67269C8.77229 9.45393 8.47557 9.33102 8.16619 9.33102C7.51166 9.33097 6.87026 9.14735 6.31485 8.80104C5.75944 8.45473 5.31229 7.9596 5.02417 7.37189C4.73606 6.78418 4.61854 6.12745 4.68495 5.4763C4.75137 4.82515 4.99907 4.20567 5.39991 3.68823C5.80075 3.1708 6.33866 2.77615 6.95255 2.5491C7.56644 2.32206 8.2317 2.27173 8.87277 2.40382C9.51383 2.53592 10.105 2.84514 10.5791 3.29638C11.0533 3.74761 11.3913 4.32277 11.555 4.95652C11.6323 5.25623 11.8256 5.51295 12.0922 5.67019C12.3588 5.82743 12.677 5.87231 12.9767 5.79496C13.2764 5.71762 13.5331 5.52438 13.6904 5.25775C13.8476 4.99113 13.8925 4.67296 13.8151 4.37325C13.588 3.49443 13.1589 2.68075 12.562 1.99695C11.9651 1.31314 11.2168 0.778093 10.3767 0.43437C9.53661 0.0906467 8.62789 -0.0522625 7.72284 0.0170129C6.8178 0.0862884 5.94141 0.365837 5.16342 0.833414C4.38543 1.30099 3.7273 1.94369 3.2414 2.71038C2.7555 3.47706 2.45525 4.34657 2.36453 5.24972C2.27381 6.15287 2.39512 7.06472 2.71882 7.91273C3.04253 8.76074 3.55968 9.5215 4.22913 10.1345C2.64452 10.8219 1.26717 11.9117 0.233749 13.2958C0.0479255 13.5433 -0.0319658 13.8545 0.0116511 14.1609C0.0552679 14.4673 0.21882 14.7438 0.466327 14.9297C0.713835 15.1155 1.02502 15.1954 1.33144 15.1518C1.63785 15.1081 1.91438 14.9446 2.10021 14.6971C2.80331 13.752 3.7185 12.9852 4.77209 12.4584C5.82569 11.9316 6.98825 11.6595 8.16619 11.6641C8.47557 11.6641 8.77229 11.5412 8.99105 11.3224C9.20982 11.1037 9.33272 10.8069 9.33272 10.4976Z" fill="white"/>
</svg>
