<svg width="30" height="36" viewBox="0 0 30 36" fill="none" xmlns="http://www.w3.org/2000/svg">
<path d="M5.9983 29.7273C6.14161 29.835 6.30475 29.9134 6.4784 29.958C6.65204 30.0026 6.83277 30.0125 7.01025 29.9871C7.18772 29.9618 7.35847 29.9017 7.5127 29.8103C7.66693 29.719 7.80163 29.598 7.90909 29.4545C8.73471 28.3537 9.8053 27.4602 11.0361 26.8448C12.2668 26.2295 13.624 25.9091 15 25.9091C16.376 25.9091 17.7332 26.2295 18.9639 26.8448C20.1947 27.4602 21.2653 28.3537 22.0909 29.4545C22.1984 29.5978 22.333 29.7185 22.4871 29.8097C22.6411 29.901 22.8117 29.961 22.989 29.9863C23.1662 30.0116 23.3468 30.0018 23.5202 29.9573C23.6937 29.9129 23.8567 29.8347 24 29.7273C24.1433 29.6198 24.264 29.4852 24.3552 29.3311C24.4464 29.177 24.5064 29.0065 24.5317 28.8292C24.5571 28.6519 24.5472 28.4714 24.5028 28.2979C24.4583 28.1245 24.3802 27.9614 24.2727 27.8182C23.0653 26.1993 21.4551 24.9247 19.6023 24.121C20.6176 23.194 21.329 21.9816 21.6431 20.6431C21.9571 19.3045 21.8591 17.9023 21.362 16.6204C20.8648 15.3385 19.9917 14.2369 18.8573 13.4601C17.7228 12.6833 16.38 12.2676 15.0051 12.2676C13.6302 12.2676 12.2874 12.6833 11.153 13.4601C10.0185 14.2369 9.14543 15.3385 8.64827 16.6204C8.15112 17.9023 8.05313 19.3045 8.36716 20.6431C8.68119 21.9816 9.39258 23.194 10.408 24.121C8.55143 24.9232 6.93757 26.1979 5.72727 27.8182C5.5101 28.1073 5.41664 28.4708 5.46747 28.8288C5.51829 29.1869 5.70923 29.51 5.9983 29.7273ZM15 15C15.8091 15 16.6 15.2399 17.2728 15.6894C17.9455 16.139 18.4699 16.7779 18.7795 17.5254C19.0891 18.2729 19.1702 19.0954 19.0123 19.889C18.8545 20.6826 18.4648 21.4115 17.8927 21.9836C17.3206 22.5557 16.5917 22.9454 15.7981 23.1032C15.0045 23.2611 14.182 23.18 13.4345 22.8704C12.687 22.5608 12.048 22.0364 11.5985 21.3637C11.149 20.6909 10.9091 19.9 10.9091 19.0909C10.9091 18.0059 11.3401 16.9654 12.1073 16.1982C12.8745 15.431 13.915 15 15 15ZM27.2727 0H2.72727C2.00396 0 1.31026 0.287337 0.7988 0.7988C0.287337 1.31026 0 2.00395 0 2.72727V32.7273C0 33.4506 0.287337 34.1443 0.7988 34.6557C1.31026 35.1672 2.00396 35.4545 2.72727 35.4545H27.2727C27.996 35.4545 28.6897 35.1672 29.2012 34.6557C29.7127 34.1443 30 33.4506 30 32.7273V2.72727C30 2.00395 29.7127 1.31026 29.2012 0.7988C28.6897 0.287337 27.996 0 27.2727 0ZM27.2727 32.7273H2.72727V2.72727H27.2727V32.7273ZM8.18182 6.81818C8.18182 6.45652 8.32549 6.10968 8.58122 5.85395C8.83695 5.59821 9.1838 5.45455 9.54545 5.45455H20.4545C20.8162 5.45455 21.1631 5.59821 21.4188 5.85395C21.6745 6.10968 21.8182 6.45652 21.8182 6.81818C21.8182 7.17984 21.6745 7.52669 21.4188 7.78242C21.1631 8.03815 20.8162 8.18182 20.4545 8.18182H9.54545C9.1838 8.18182 8.83695 8.03815 8.58122 7.78242C8.32549 7.52669 8.18182 7.17984 8.18182 6.81818Z" fill="white"/>
</svg>
