<svg width="30" height="26" viewBox="0 0 30 26" fill="none" xmlns="http://www.w3.org/2000/svg">
<path d="M3.33333 22.5511H5.70833L22 8.77379L19.625 6.76533L3.33333 20.5427V22.5511ZM0 25.37V19.3799L22 0.810431C22.3333 0.552032 22.7014 0.352361 23.1042 0.211417C23.5069 0.0704722 23.9306 0 24.375 0C24.8194 0 25.25 0.0704722 25.6667 0.211417C26.0833 0.352361 26.4444 0.563778 26.75 0.845667L29.0417 2.81889C29.375 3.07729 29.6181 3.38267 29.7708 3.73503C29.9236 4.08739 30 4.43975 30 4.79211C30 5.16796 29.9236 5.5262 29.7708 5.86681C29.6181 6.20743 29.375 6.51868 29.0417 6.80057L7.08333 25.37H0ZM20.7917 7.78718L19.625 6.76533L22 8.77379L20.7917 7.78718Z" fill="#999999"/>
</svg>
