<svg width="108" height="86" viewBox="0 0 108 86" fill="none" xmlns="http://www.w3.org/2000/svg">
<path d="M19.0588 0H21.5294L25.0588 1.39271L26.8235 2.78543L28.5882 5.91903L43.7647 6.26721L45.8824 6.96356L46.9412 8.70445V19.1498L61.0588 18.8016L61.4118 8.0081L62.8235 6.61538L64.5882 6.26721H79.4118L80.1176 4.17814L81.8824 2.08907L85.0588 0.348178L86.4706 0H88.9412L92.8235 1.39271L94.5882 2.78543L96.3529 5.57085L96.7059 6.61538V11.1417L95.2941 13.9271L93.8824 15.668L89.6471 17.7571H86.1176L83.2941 16.7126L81.5294 15.3198L79.4118 12.1862V11.4899H66.7059V19.1498L70.2353 19.498L73.7647 21.2389L75.5294 22.6316L77.2941 25.417L78.3529 29.5951V40.3887L90.3529 40.0405L92.4706 36.9069L94.2353 35.5142L96.3529 34.4696L99.8824 34.1215L103.059 35.166L105.176 36.5587L107.294 39.3441L108 41.085V45.6113L105.882 49.0931L103.765 50.834L100.941 51.8785H97.4118L94.5882 50.834L92.4706 49.0931L90.7059 46.3077V45.6113H78.3529V56.0567L77.6471 59.8866L75.5294 63.3684L73.0588 65.4575L69.5294 66.8502L67.0588 67.1984L66.7059 74.5101H79.0588L81.5294 70.6802L84.3529 68.9393L86.4706 68.2429L90 68.5911L92.8235 69.6356L95.2941 72.0729L96.7059 74.8583V79.7328L95.2941 82.5182L92.4706 84.9555L89.6471 86H86.1176L83.2941 84.9555L81.1765 83.2146L79.4118 80.4292V79.7328H62.4706L61.4118 78.3401L61.0588 67.1984H46.9412V76.251V77.4585L46.1007 79.7328H28.5882L27.8824 81.4737L25.4118 84.2591L22.5882 85.6518L21.1765 86H18L14.8235 84.6073L12.3529 82.17L11.2941 80.081L10.9412 76.251L12 73.1174L13.7647 70.6802L16.9412 68.9393L19.4118 68.2429L22.5882 68.5911L25.4118 69.9838L27.8824 72.7692L28.9412 74.5101H40.9412L41.2941 66.8502H38.4706L34.9412 65.4575L32.1176 63.0203L30 58.8421L29.6471 57.1012V45.6113L17.6471 45.9595L15.5294 49.0931L12.3529 51.1822L10.5882 51.8785H7.05882L4.23529 50.834L1.76471 48.7449L0 45.2632V41.085L1.05882 38.6478L3.52941 35.8624L6.70588 34.4696L10.2353 34.1215L13.4118 35.166L15.8824 37.2551L17.6471 40.3887H29.6471V28.8988L30.7059 25.417L33.1765 21.9352L36.3529 19.8462L41.2941 18.8016L41.6471 11.4899L28.5882 11.8381L27.1765 14.2753L24.3529 16.7126L21.5294 17.7571H18L14.4706 16.0162L12 13.2308L11.2941 11.4899V6.26721L12.3529 4.17814L13.7647 2.43725L16.5882 0.696356L19.0588 0Z" fill="white"/>
<path d="M39.344 24.3667H69.2768L71.3897 25.7599L72.7983 27.8496L73.1504 28.8945V56.4091L72.094 59.1954L69.9811 60.9368L68.2203 61.6334H39.6961L37.5832 60.5885L35.4703 58.1505L35.1182 56.7574V28.8945L36.5268 26.1082L39.344 24.3667Z" fill="#F84455"/>
<path d="M44.4214 31.5333H64.4277L65.8316 32.9406L66.1826 49.8278L65.8316 53.346L64.0767 54.7533H44.7724L43.3685 54.0497L42.6665 52.6424V33.6442L43.7195 31.8851L44.4214 31.5333Z" fill="white"/>
<path d="M47.6128 36.4066H60.387V48.958L60.0321 49.3066H48.3225L47.6128 48.958V36.4066Z" fill="white"/>
<path d="M97.2998 39.5599H100.41L102.139 41.3516L102.484 42.0683V44.2183L101.102 46.0099L99.7192 46.7266H97.2998L95.5717 44.9349L95.2261 42.4266L96.2629 40.2766L97.2998 39.5599Z" fill="#F84455"/>
<path d="M7.7422 39.5599H10.6178L12.415 41.7099L12.7745 43.8599L11.3367 46.0099L9.89888 46.7266H7.38276L5.58552 44.9349L5.22607 42.0683L6.30442 40.2766L7.7422 39.5599Z" fill="#F84455"/>
<path d="M18.4839 5.15994H21.3595L23.1567 7.30994L23.5162 9.45994L22.0784 11.6099L20.6406 12.3266H18.1245L16.3272 10.5349L15.9678 7.66828L17.0461 5.87661L18.4839 5.15994Z" fill="#F84455"/>
<path d="M86.7095 5.15994H89.5851L91.3823 7.30994L91.7417 9.45994L90.304 11.6099L88.8662 12.3266H86.35L84.5528 10.5349L84.1934 7.66828L85.2717 5.87661L86.7095 5.15994Z" fill="#F84455"/>
<path d="M86.7095 73.6733H89.5851L91.3823 75.8233L91.7417 77.9733L90.304 80.1233L88.8662 80.84H86.35L84.5528 79.0483L84.1934 76.1817L85.2717 74.39L86.7095 73.6733Z" fill="#F84455"/>
<path d="M18.6772 73.6733H21.0965L22.8246 74.7483L23.5159 76.1817V78.3317L21.7878 80.4817L19.0228 80.84L17.2947 79.765L16.2578 77.2567L17.2947 74.7483L18.6772 73.6733Z" fill="#F84455"/>
</svg>
