<svg width="100" height="80" viewBox="0 0 100 80" fill="none" xmlns="http://www.w3.org/2000/svg">
<path d="M17.6471 0H19.9346L23.2026 1.29555L24.8366 2.59109L26.4706 5.50607L40.5229 5.82996L42.4837 6.47773L43.4641 8.09717V17.8138L56.5359 17.4899L56.8627 7.44939L58.1699 6.15385L59.8039 5.82996H73.5294L74.183 3.88664L75.817 1.94332L78.7582 0.323887L80.0654 0H82.3529L85.9477 1.29555L87.5817 2.59109L89.2157 5.18219L89.5425 6.15385V10.3644L88.2353 12.9555L86.9281 14.5749L83.0065 16.5182H79.7386L77.1242 15.5466L75.4902 14.251L73.5294 11.336V10.6883H61.7647V17.8138L65.0327 18.1377L68.3007 19.7571L69.9346 21.0526L71.5686 23.6437L72.549 27.5304V37.5709L83.6601 37.247L85.6209 34.332L87.2549 33.0364L89.2157 32.0648L92.4837 31.7409L95.4248 32.7126L97.3856 34.0081L99.3464 36.5992L100 38.2186V42.4292L98.0392 45.668L96.0784 47.2875L93.4641 48.2591H90.1961L87.5817 47.2875L85.6209 45.668L83.9869 43.0769V42.4292H72.549V52.1458L71.8954 55.7085L69.9346 58.9474L67.647 60.8907L64.3791 62.1862L62.0915 62.5101L61.7647 69.3117H73.2026L75.4902 65.749L78.1046 64.1296L80.0654 63.4818L83.3333 63.8057L85.9477 64.7773L88.2353 67.0445L89.5425 69.6356V74.1701L88.2353 76.7611L85.6209 79.0283L83.0065 80H79.7386L77.1242 79.0283L75.1634 77.4089L73.5294 74.8178V74.1701H57.8431L56.8627 72.8745L56.5359 62.5101H43.4641V70.9312V72.0544L42.6858 74.1701H26.4706L25.817 75.7895L23.5294 78.3806L20.915 79.6761L19.6078 80H16.6667L13.7255 78.7045L11.4379 76.4373L10.4575 74.4939L10.1307 70.9312L11.1111 68.0162L12.7451 65.749L15.6863 64.1296L17.9739 63.4818L20.915 63.8057L23.5294 65.1012L25.817 67.6923L26.7974 69.3117H37.9085L38.2353 62.1862H35.6209L32.3529 60.8907L29.7386 58.6235L27.7778 54.7369L27.451 53.1174V42.4292L16.3399 42.753L14.3791 45.668L11.4379 47.6113L9.80392 48.2591H6.53595L3.92157 47.2875L1.63399 45.3441L0 42.1053V38.2186L0.980392 35.9514L3.26797 33.3603L6.20915 32.0648L9.47712 31.7409L12.4183 32.7126L14.7059 34.6559L16.3399 37.5709H27.451V26.8826L28.4314 23.6437L30.719 20.4049L33.6601 18.4615L38.2353 17.4899L38.5621 10.6883L26.4706 11.0121L25.1634 13.2794L22.549 15.5466L19.9346 16.5182H16.6667L13.3987 14.8988L11.1111 12.3077L10.4575 10.6883V5.82996L11.4379 3.88664L12.7451 2.26721L15.3595 0.647773L17.6471 0Z" fill="black"/>
<path d="M36.4296 22.6666H64.1452L66.1016 23.9626L67.4058 25.9065L67.7319 26.8785V52.4735L66.7537 55.0654L64.7973 56.6853L63.167 57.3333H36.7557L34.7993 56.3613L32.8429 54.0934L32.5168 52.7975V26.8785L33.8211 24.2866L36.4296 22.6666Z" fill="white"/>
<path d="M41.131 29.3333H59.6554L60.9553 30.6423L61.2803 46.3514L60.9553 49.6242L59.3304 50.9333H41.456L40.1561 50.2787L39.5061 48.9696V31.2969L40.4811 29.6605L41.131 29.3333Z" fill="black"/>
<path d="M44.0859 33.8666H55.9139V45.5423L55.5853 45.8666H44.743L44.0859 45.5423V33.8666Z" fill="black"/>
<path d="M90.0922 36.7999H92.9724L94.5725 38.4666L94.8926 39.1333V41.1333L93.6125 42.7999L92.3324 43.4666H90.0922L88.4921 41.7999L88.1721 39.4666L89.1322 37.4666L90.0922 36.7999Z" fill="white"/>
<path d="M7.16837 36.7999H9.83094L11.495 38.7999L11.8279 40.7999L10.4966 42.7999L9.1653 43.4666H6.83555L5.17144 41.7999L4.83862 39.1333L5.83709 37.4666L7.16837 36.7999Z" fill="white"/>
<path d="M17.1147 4.80005H19.7772L21.4413 6.80005L21.7742 8.80005L20.4429 10.8L19.1116 11.4667H16.7818L15.1177 9.80005L14.7849 7.13338L15.7834 5.46672L17.1147 4.80005Z" fill="white"/>
<path d="M80.2868 4.80005H82.9494L84.6135 6.80005L84.9463 8.80005L83.615 10.8L82.2837 11.4667H79.954L78.2899 9.80005L77.957 7.13338L78.9555 5.46672L80.2868 4.80005Z" fill="white"/>
<path d="M80.2868 68.5333H82.9494L84.6135 70.5333L84.9463 72.5333L83.615 74.5333L82.2837 75.2H79.954L78.2899 73.5333L77.957 70.8667L78.9555 69.2L80.2868 68.5333Z" fill="white"/>
<path d="M17.2939 68.5333H19.534L21.1341 69.5333L21.7741 70.8667V72.8667L20.174 74.8667L17.6139 75.2L16.0138 74.2L15.0537 71.8667L16.0138 69.5333L17.2939 68.5333Z" fill="white"/>
</svg>
