<svg width="75" height="72" viewBox="0 0 75 72" fill="none" xmlns="http://www.w3.org/2000/svg">
<path d="M11.2863 71.2095C7.53841 71.2095 4.55573 69.7572 2.33824 66.8526C0.120754 63.948 -0.519506 60.7154 0.41746 57.155L7.16362 31.6695C5.10229 30.3577 3.40014 28.5775 2.05715 26.3288C0.714167 24.08 0.0426737 21.5502 0.0426737 18.7393C0.0426737 14.6167 1.51059 11.0874 4.44642 8.15161C7.38225 5.21578 10.9115 3.74787 15.0341 3.74787H45.0171C47.828 3.74787 49.9518 4.93469 51.3884 7.30834C52.8251 9.68199 52.9188 12.1181 51.6695 14.6167L44.1738 29.6081C43.4867 30.8574 42.5653 31.8569 41.4097 32.6064C40.2542 33.356 38.958 33.7308 37.5213 33.7308H29.9319L28.9012 37.4787H30.0256C31.0875 37.4787 31.9776 37.8378 32.696 38.5562C33.4143 39.2745 33.7735 40.1646 33.7735 41.2265V48.7223C33.7735 49.7842 33.4143 50.6743 32.696 51.3926C31.9776 52.111 31.0875 52.4701 30.0256 52.4701H24.966L22.1551 62.9641C21.468 65.4003 20.125 67.3835 18.1261 68.9139C16.1273 70.4443 13.8473 71.2095 11.2863 71.2095ZM11.2863 63.7137C12.1608 63.7137 12.9103 63.4639 13.535 62.9641C14.1596 62.4644 14.5969 61.8086 14.8467 60.9965L22.1551 33.7308H14.3783L7.6321 59.0289C7.31978 60.2157 7.53841 61.2932 8.28798 62.2614C9.03755 63.2296 10.037 63.7137 11.2863 63.7137ZM15.0341 26.2351H37.5213L45.0171 11.2436H15.0341C12.9728 11.2436 11.2082 11.9776 9.74028 13.4455C8.27236 14.9134 7.53841 16.678 7.53841 18.7393C7.53841 20.8007 8.27236 22.5653 9.74028 24.0332C11.2082 25.5011 12.9728 26.2351 15.0341 26.2351ZM60.0085 11.2436L57.6661 6.18398L71.2521 0L73.5009 5.15332L60.0085 11.2436ZM71.2521 37.4787L57.6661 31.3884L60.0085 26.2351L73.5009 32.419L71.2521 37.4787ZM60.0085 21.5502V15.9284H75V21.5502H60.0085Z" fill="white"/>
</svg>
