<svg width="48" height="30" viewBox="0 0 48 30" fill="none" xmlns="http://www.w3.org/2000/svg">
<path d="M2.09934 0C0.939906 0 0 0.939906 0 2.09934V2.09934C0 3.25877 0.939906 4.19868 2.09934 4.19868H45.9007C47.0601 4.19868 48 3.25877 48 2.09934V2.09934C48 0.939906 47.0601 0 45.9007 0H2.09934ZM2.09934 12.4701C0.939906 12.4701 0 13.41 0 14.5694V14.5694C0 15.7288 0.939906 16.6687 2.09934 16.6687H45.9007C47.0601 16.6687 48 15.7288 48 14.5694V14.5694C48 13.41 47.0601 12.4701 45.9007 12.4701H2.09934ZM2.09934 25.0661C0.939906 25.0661 0 26.006 0 27.1654V27.1654C0 28.3249 0.939906 29.2648 2.09934 29.2648H45.9007C47.0601 29.2648 48 28.3249 48 27.1654V27.1654C48 26.006 47.0601 25.0661 45.9007 25.0661H2.09934Z" fill="black"/>
</svg>
