<svg width="30" height="30" viewBox="0 0 30 30" fill="none" xmlns="http://www.w3.org/2000/svg">
<path d="M10.9617 13.3289C11.1371 13.2277 11.2828 13.082 11.3841 12.9066C11.4853 12.7311 11.5386 12.5321 11.5386 12.3296V1.94678C11.5376 1.76285 11.4926 1.58183 11.4073 1.41883C11.3221 1.25582 11.1992 1.11555 11.0487 1.00971C10.8983 0.903878 10.7247 0.835543 10.5424 0.81041C10.3602 0.785278 10.1746 0.804075 10.0011 0.865235C6.6333 2.05697 3.80112 4.41074 2.01368 7.50342C0.226243 10.5961 -0.399221 14.2248 0.249729 17.7373C0.283366 17.9189 0.360136 18.0899 0.473582 18.2356C0.587027 18.3814 0.733831 18.4979 0.901647 18.5751C1.05288 18.6459 1.21787 18.6823 1.38482 18.6819C1.58733 18.6819 1.7863 18.6287 1.96173 18.5276L10.9617 13.3289ZM9.23091 3.69455V11.6634L2.32519 15.6478C2.30789 15.43 2.30789 15.2108 2.30789 14.9974C2.30993 12.6589 2.95734 10.3663 4.17883 8.37207C5.40031 6.37782 7.1485 4.75924 9.23091 3.69455ZM30 14.9974C30.0011 18.2898 28.9186 21.4911 26.9195 24.1073C24.9204 26.7236 22.1158 28.6094 18.9384 29.4739C15.7609 30.3383 12.3873 30.1333 9.33797 28.8905C6.28864 27.6477 3.73308 25.4361 2.06558 22.597C1.98785 22.4659 1.93688 22.3207 1.91562 22.1697C1.89436 22.0188 1.90323 21.8651 1.94172 21.7176C1.98021 21.5701 2.04756 21.4317 2.13987 21.3104C2.23218 21.1891 2.34762 21.0872 2.47952 21.0108L13.8463 14.3961V1.15365C13.8463 0.84768 13.9678 0.554246 14.1842 0.337895C14.4006 0.121544 14.6941 0 15.0001 0C17.6177 0.00133536 20.1894 0.68719 22.4599 1.98947C24.7304 3.29175 26.6208 5.16517 27.9433 7.42371C27.9591 7.44679 27.9736 7.46986 27.988 7.49437C28.0024 7.51889 28.0168 7.54773 28.0298 7.57369C29.324 9.83363 30.0033 12.3932 30 14.9974Z" fill="white"/>
</svg>
