<svg width="48" height="41" viewBox="0 0 48 41" fill="none" xmlns="http://www.w3.org/2000/svg">
<path d="M16 23.9165C15.4333 23.9165 14.9583 23.7528 14.575 23.4254C14.1917 23.0979 14 22.6922 14 22.2082C14 21.7241 14.1917 21.3184 14.575 20.991C14.9583 20.6636 15.4333 20.4998 16 20.4998C16.5667 20.4998 17.0417 20.6636 17.425 20.991C17.8083 21.3184 18 21.7241 18 22.2082C18 22.6922 17.8083 23.0979 17.425 23.4254C17.0417 23.7528 16.5667 23.9165 16 23.9165ZM24 23.9165C23.4333 23.9165 22.9583 23.7528 22.575 23.4254C22.1917 23.0979 22 22.6922 22 22.2082C22 21.7241 22.1917 21.3184 22.575 20.991C22.9583 20.6636 23.4333 20.4998 24 20.4998C24.5667 20.4998 25.0417 20.6636 25.425 20.991C25.8083 21.3184 26 21.7241 26 22.2082C26 22.6922 25.8083 23.0979 25.425 23.4254C25.0417 23.7528 24.5667 23.9165 24 23.9165ZM32 23.9165C31.4333 23.9165 30.9583 23.7528 30.575 23.4254C30.1917 23.0979 30 22.6922 30 22.2082C30 21.7241 30.1917 21.3184 30.575 20.991C30.9583 20.6636 31.4333 20.4998 32 20.4998C32.5667 20.4998 33.0417 20.6636 33.425 20.991C33.8083 21.3184 34 21.7241 34 22.2082C34 22.6922 33.8083 23.0979 33.425 23.4254C33.0417 23.7528 32.5667 23.9165 32 23.9165ZM10 37.5832C8.9 37.5832 7.95833 37.2486 7.175 36.5795C6.39167 35.9104 6 35.1061 6 34.1665V10.2498C6 9.31025 6.39167 8.50591 7.175 7.83682C7.95833 7.16772 8.9 6.83317 10 6.83317H12V3.4165H16V6.83317H32V3.4165H36V6.83317H38C39.1 6.83317 40.0417 7.16772 40.825 7.83682C41.6083 8.50591 42 9.31025 42 10.2498V34.1665C42 35.1061 41.6083 35.9104 40.825 36.5795C40.0417 37.2486 39.1 37.5832 38 37.5832H10ZM10 34.1665H38V17.0832H10V34.1665ZM10 13.6665H38V10.2498H10V13.6665Z" fill="white"/>
</svg>
