<svg width="30" height="29" viewBox="0 0 30 29" fill="none" xmlns="http://www.w3.org/2000/svg">
<path d="M4.51451 28.4838C3.01536 28.4838 1.82229 27.9029 0.935297 26.741C0.0483018 25.5792 -0.207803 24.2862 0.166984 22.862L2.86545 12.6678C2.04092 12.1431 1.36005 11.431 0.822861 10.5315C0.285667 9.63202 0.0170695 8.62009 0.0170695 7.49573C0.0170695 5.84667 0.604235 4.43498 1.77857 3.26064C2.9529 2.08631 4.36459 1.49915 6.01366 1.49915H18.0068C19.1312 1.49915 19.9807 1.97388 20.5554 2.92334C21.13 3.8728 21.1675 4.84724 20.6678 5.84667L17.6695 11.8433C17.3947 12.343 17.0261 12.7427 16.5639 13.0426C16.1017 13.3424 15.5832 13.4923 15.0085 13.4923H11.9728L11.5605 14.9915H12.0102C12.435 14.9915 12.791 15.1351 13.0784 15.4225C13.3657 15.7098 13.5094 16.0659 13.5094 16.4906V19.4889C13.5094 19.9137 13.3657 20.2697 13.0784 20.557C12.791 20.8444 12.435 20.9881 12.0102 20.9881H9.98639L8.86203 25.1857C8.58719 26.1601 8.05 26.9534 7.25045 27.5656C6.45091 28.1777 5.53893 28.4838 4.51451 28.4838ZM4.51451 25.4855C4.86431 25.4855 5.16414 25.3855 5.414 25.1857C5.66385 24.9858 5.83876 24.7234 5.9387 24.3986L8.86203 13.4923H5.75131L3.05284 23.6116C2.92791 24.0863 3.01536 24.5173 3.31519 24.9046C3.61502 25.2919 4.01479 25.4855 4.51451 25.4855ZM6.01366 10.494H15.0085L18.0068 4.49744H6.01366C5.18913 4.49744 4.48328 4.79102 3.89611 5.37819C3.30895 5.96535 3.01536 6.6712 3.01536 7.49573C3.01536 8.32026 3.30895 9.02611 3.89611 9.61328C4.48328 10.2004 5.18913 10.494 6.01366 10.494ZM24.0034 4.49744L23.0664 2.47359L28.5009 0L29.4003 2.06133L24.0034 4.49744ZM28.5009 14.9915L23.0664 12.5554L24.0034 10.494L29.4003 12.9676L28.5009 14.9915ZM24.0034 8.62009V6.37137H30V8.62009H24.0034Z" fill="#E8EAED"/>
</svg>
