<svg width="75" height="76" viewBox="0 0 75 76" fill="none" xmlns="http://www.w3.org/2000/svg">
<path d="M13.7828 35.7995L12.7088 30.4296C11.9928 30.1313 11.3216 29.818 10.6951 29.4899C10.0686 29.1617 9.42721 28.7589 8.77088 28.2816L3.57995 29.8926L0 23.8067L4.11694 20.2267C3.99761 19.4511 3.93795 18.6754 3.93795 17.8998C3.93795 17.1241 3.99761 16.3484 4.11694 15.5728L0 11.9928L3.57995 5.90692L8.77088 7.5179C9.42721 7.04057 10.0686 6.63783 10.6951 6.30967C11.3216 5.9815 11.9928 5.66826 12.7088 5.36993L13.7828 0H20.9427L22.0167 5.36993C22.7327 5.66826 23.4039 5.9815 24.0304 6.30967C24.6569 6.63783 25.2983 7.04057 25.9547 7.5179L31.1456 5.90692L34.7255 11.9928L30.6086 15.5728C30.7279 16.3484 30.7876 17.1241 30.7876 17.8998C30.7876 18.6754 30.7279 19.4511 30.6086 20.2267L34.7255 23.8067L31.1456 29.8926L25.9547 28.2816C25.2983 28.7589 24.6569 29.1617 24.0304 29.4899C23.4039 29.818 22.7327 30.1313 22.0167 30.4296L20.9427 35.7995H13.7828ZM17.3628 25.0597C19.3317 25.0597 21.0173 24.3586 22.4195 22.9564C23.8216 21.5543 24.5227 19.8687 24.5227 17.8998C24.5227 15.9308 23.8216 14.2452 22.4195 12.8431C21.0173 11.4409 19.3317 10.7399 17.3628 10.7399C15.3938 10.7399 13.7082 11.4409 12.3061 12.8431C10.9039 14.2452 10.2029 15.9308 10.2029 17.8998C10.2029 19.8687 10.9039 21.5543 12.3061 22.9564C13.7082 24.3586 15.3938 25.0597 17.3628 25.0597ZM45.8234 75.179L44.2124 67.6611C43.1981 67.3031 42.2584 66.8705 41.3932 66.3634C40.528 65.8562 39.6778 65.2745 38.8425 64.6181L31.6826 66.9451L26.6706 58.3532L32.3986 53.3413C32.2792 52.2673 32.2196 51.1933 32.2196 50.1193C32.2196 49.0453 32.2792 47.9714 32.3986 46.8974L26.6706 41.8854L31.6826 33.2936L38.8425 35.6205C39.6778 34.9642 40.528 34.3825 41.3932 33.8753C42.2584 33.3681 43.1981 32.9356 44.2124 32.5776L45.8234 25.0597H55.8473L57.4582 32.5776C58.4725 32.9356 59.4123 33.3681 60.2774 33.8753C61.1426 34.3825 61.9928 34.9642 62.8282 35.6205L69.9881 33.2936L75 41.8854L69.2721 46.8974C69.3914 47.9714 69.4511 49.0453 69.4511 50.1193C69.4511 51.1933 69.3914 52.2673 69.2721 53.3413L75 58.3532L69.9881 66.9451L62.8282 64.6181C61.9928 65.2745 61.1426 65.8562 60.2774 66.3634C59.4123 66.8705 58.4725 67.3031 57.4582 67.6611L55.8473 75.179H45.8234ZM50.8353 60.8592C53.8186 60.8592 56.3544 59.815 58.4427 57.7267C60.531 55.6384 61.5752 53.1026 61.5752 50.1193C61.5752 47.136 60.531 44.6002 58.4427 42.5119C56.3544 40.4236 53.8186 39.3795 50.8353 39.3795C47.852 39.3795 45.3162 40.4236 43.2279 42.5119C41.1396 44.6002 40.0955 47.136 40.0955 50.1193C40.0955 53.1026 41.1396 55.6384 43.2279 57.7267C45.3162 59.815 47.852 60.8592 50.8353 60.8592Z" fill="white"/>
</svg>
