<svg width="20" height="11" viewBox="0 0 20 11" fill="none" xmlns="http://www.w3.org/2000/svg">
<path d="M5.21739 6.95652C4.73913 6.95652 4.32971 6.78623 3.98913 6.44565C3.64855 6.10507 3.47826 5.69565 3.47826 5.21739C3.47826 4.73913 3.64855 4.32971 3.98913 3.98913C4.32971 3.64855 4.73913 3.47826 5.21739 3.47826C5.69565 3.47826 6.10507 3.64855 6.44565 3.98913C6.78623 4.32971 6.95652 4.73913 6.95652 5.21739C6.95652 5.69565 6.78623 6.10507 6.44565 6.44565C6.10507 6.78623 5.69565 6.95652 5.21739 6.95652ZM5.21739 10.4348C3.76812 10.4348 2.53623 9.92754 1.52174 8.91304C0.507246 7.89855 0 6.66667 0 5.21739C0 3.76812 0.507246 2.53623 1.52174 1.52174C2.53623 0.507246 3.76812 0 5.21739 0C6.18841 0 7.06884 0.23913 7.8587 0.717391C8.64855 1.19565 9.27536 1.82609 9.73913 2.6087H17.3913L20 5.21739L16.087 9.13043L14.3478 7.82609L12.6087 9.13043L10.7609 7.82609H9.73913C9.27536 8.6087 8.64855 9.23913 7.8587 9.71739C7.06884 10.1957 6.18841 10.4348 5.21739 10.4348ZM5.21739 8.69565C6.02899 8.69565 6.74275 8.44928 7.3587 7.95652C7.97464 7.46377 8.38406 6.84058 8.58696 6.08696H11.3043L12.5652 6.97826L14.3478 5.65217L15.8913 6.84783L17.5217 5.21739L16.6522 4.34783H8.58696C8.38406 3.5942 7.97464 2.97101 7.3587 2.47826C6.74275 1.98551 6.02899 1.73913 5.21739 1.73913C4.26087 1.73913 3.44203 2.07971 2.76087 2.76087C2.07971 3.44203 1.73913 4.26087 1.73913 5.21739C1.73913 6.17391 2.07971 6.99275 2.76087 7.67391C3.44203 8.35507 4.26087 8.69565 5.21739 8.69565Z" fill="black" fill-opacity="0.5"/>
</svg>
