<svg width="16" height="20" viewBox="0 0 16 20" fill="none" xmlns="http://www.w3.org/2000/svg">
<path d="M1.90476 20C1.38095 20 0.93254 19.8135 0.559524 19.4405C0.186508 19.0675 0 18.619 0 18.0952V8.57143C0 8.04762 0.186508 7.59921 0.559524 7.22619C0.93254 6.85317 1.38095 6.66667 1.90476 6.66667H2.85714V4.7619C2.85714 3.44444 3.32143 2.32143 4.25 1.39286C5.17857 0.464286 6.30159 0 7.61905 0C8.93651 0 10.0595 0.464286 10.9881 1.39286C11.9167 2.32143 12.381 3.44444 12.381 4.7619V6.66667H13.3333C13.8571 6.66667 14.3056 6.85317 14.6786 7.22619C15.0516 7.59921 15.2381 8.04762 15.2381 8.57143V18.0952C15.2381 18.619 15.0516 19.0675 14.6786 19.4405C14.3056 19.8135 13.8571 20 13.3333 20H1.90476ZM1.90476 18.0952H13.3333V8.57143H1.90476V18.0952ZM7.61905 15.2381C8.14286 15.2381 8.59127 15.0516 8.96429 14.6786C9.3373 14.3056 9.52381 13.8571 9.52381 13.3333C9.52381 12.8095 9.3373 12.3611 8.96429 11.9881C8.59127 11.6151 8.14286 11.4286 7.61905 11.4286C7.09524 11.4286 6.64683 11.6151 6.27381 11.9881C5.90079 12.3611 5.71429 12.8095 5.71429 13.3333C5.71429 13.8571 5.90079 14.3056 6.27381 14.6786C6.64683 15.0516 7.09524 15.2381 7.61905 15.2381ZM4.7619 6.66667H10.4762V4.7619C10.4762 3.96825 10.1984 3.29365 9.64286 2.7381C9.0873 2.18254 8.4127 1.90476 7.61905 1.90476C6.8254 1.90476 6.15079 2.18254 5.59524 2.7381C5.03968 3.29365 4.7619 3.96825 4.7619 4.7619V6.66667Z" fill="black" fill-opacity="0.5"/>
</svg>
